<?xml version="1.0" encoding="utf-8"?>
<!-- Generator: Adobe Illustrator 16.0.0, SVG Export Plug-In . SVG Version: 6.00 Build 0)  -->
<!DOCTYPE svg PUBLIC "-//W3C//DTD SVG 1.1//EN" "http://www.w3.org/Graphics/SVG/1.1/DTD/svg11.dtd">
<svg version="1.1" xmlns="http://www.w3.org/2000/svg" xmlns:xlink="http://www.w3.org/1999/xlink" x="0px" y="0px" width="600px"
	 height="600px" viewBox="0 0 600 600" enable-background="new 0 0 600 600" xml:space="preserve">
<g id="Layer_3">
	<g>
		
			<rect x="109.081" y="109.081" transform="matrix(-0.7071 -0.7071 0.7071 -0.7071 300 724.264)" fill-rule="evenodd" clip-rule="evenodd" width="381.838" height="381.838"/>
		<path fill-rule="evenodd" clip-rule="evenodd" fill="#FFFFFF" d="M300,30L30,300l270,270l270-270L300,30z M300,0l300,300L300,600
			L0,300L300,0z"/>
	</g>
</g>
<g id="Layer_2">
	<path fill-rule="evenodd" clip-rule="evenodd" fill="#FFFFFF" d="M334.8,155.9c-10.633-2.233-21.866-2.4-33.7-0.5
		c-23.3,3.733-42.183,14.3-56.649,31.7c-3.7,4.5-6.85,9.117-9.45,13.85c-0.467,0.8-0.883,1.6-1.25,2.4
		c2.533,0.1,5.067,0.283,7.6,0.55c32.367,3.367,58.883,16.983,79.55,40.85c1.433,1.633,2.816,3.317,4.149,5.05l1.851,2.35
		c9.833-12.733,23.1-22.7,39.8-29.9c4.1-1.733,8.166-3.2,12.2-4.4c5.267-1.633,10.5-2.833,15.699-3.6
		c4.034-0.633,8.101-0.967,12.2-1c7.066-0.1,14.117,0.567,21.15,2c2.1,0.433,4.2,0.933,6.3,1.5c19.9,5.5,34.384,15.917,43.45,31.25
		c1.533,2.833,2.95,5.833,4.25,9c1.366,3.367,2.5,6.75,3.399,10.15c5.834,21.9,2.217,44.017-10.85,66.35
		c-7.1,12.1-16.05,22.6-26.85,31.5c-7.4,5.1-15.534,9.634-24.4,13.6c-30.566,13.834-61.017,17.017-91.35,9.551
		c-3.567-0.867-7.017-1.867-10.351-3c-4.934,5.533-10.566,10.716-16.899,15.55c-24.234,18.366-51.784,26.333-82.65,23.899l74.7,73.2
		l-22.55,19.851L148.5,393.5c-0.6-0.566-1.2-1.15-1.8-1.75c-0.6-0.634-1.217-1.25-1.85-1.85c-2.033-2.134-4.033-4.301-6-6.5
		c-20.667-23.934-29.417-51.134-26.25-81.601c3.167-30.4,17.35-55.183,42.55-74.35c13.667-10.4,28.434-17.45,44.3-21.15
		c3.133-11.833,8.917-23.316,17.35-34.45c18.034-23.967,42.75-39.35,74.15-46.15c26.967-5.867,52.066-3.917,75.3,5.85l-13.15,30.6
		C347.2,159.317,341.1,157.233,334.8,155.9z M421.55,251.05c-5.967-1.933-12.616-2.783-19.95-2.55
		c-3.199,0.1-6.333,0.383-9.399,0.85c-10.634,1.633-20.684,5.533-30.15,11.7c-2.333,1.534-4.633,3.184-6.899,4.95
		c-5.233,4.167-9.717,8.65-13.45,13.45c5.366,14.633,7.166,30.25,5.399,46.85c-1.199,11.8-4.066,22.75-8.6,32.851
		c8.667,2.233,17.35,3.283,26.05,3.149c8.233-0.166,16.483-1.366,24.75-3.6c12.066-2.2,23.417-7.384,34.05-15.55
		c0.301-0.301,0.634-0.584,1-0.851c14.2-11.166,22.917-24.45,26.15-39.85c3.233-15.434,0.083-28.4-9.45-38.9
		C435.684,257.617,429.184,253.45,421.55,251.05z M266.15,270.65c1.2,0.1,2.4,0.2,3.6,0.3c7.033,0.466,13.9-0.133,20.6-1.8
		c3.167-0.9,6.35-2.033,9.55-3.4c-0.433-0.567-0.9-1.117-1.4-1.65l-0.05-0.05c0-0.033-0.017-0.05-0.05-0.05
		c-0.033-0.133-0.083-0.233-0.15-0.3c-15.6-17.8-35.583-27.934-59.95-30.4c-3.8-0.4-7.533-0.6-11.2-0.6
		c0.667,7.4,3.316,14.25,7.95,20.55c5.534,7.367,12.717,12.467,21.55,15.3C259.567,269.483,262.75,270.183,266.15,270.65z
		 M141.95,304.85v0.051c-2.2,22.033,4.216,41.75,19.25,59.149c15.6,18.033,35.667,28.316,60.2,30.851
		c24.533,2.6,46.35-3.317,65.45-17.75c2.5-1.934,4.867-3.95,7.1-6.051c-6.1-4.399-11.467-9.5-16.1-15.3L299.7,336
		c3.434,4.066,7.366,7.7,11.8,10.9c3.267-7.301,5.35-15.167,6.25-23.601v-0.05c1-10.233,0.167-19.934-2.5-29.1
		c-1.866,0.7-3.7,1.367-5.5,2c-8.333,2.7-16.617,4.35-24.85,4.95c-4.367,0.367-8.733,0.434-13.1,0.2c-4.1-0.2-8.233-0.667-12.4-1.4
		c-2.933-0.533-5.833-1.167-8.7-1.9c-1.067-0.333-2.133-0.65-3.2-0.95c-21.067-6.3-35.833-18.25-44.3-35.85
		c-1.833-3.767-3.267-7.583-4.3-11.45c-0.133-0.467-0.233-0.95-0.3-1.45c-0.5-2.3-0.917-4.566-1.25-6.8
		c-0.133-1.2-0.283-2.417-0.45-3.65c-8.267,2.933-16.1,7.217-23.5,12.85c-0.066,0.033-0.133,0.083-0.2,0.15h-0.05L173,251
		C154.733,264.9,144.383,282.85,141.95,304.85z"/>
</g>
</svg>
