<?xml version="1.0" encoding="UTF-8" standalone="no"?>
<!-- Generator: Adobe Illustrator 16.0.0, SVG Export Plug-In . SVG Version: 6.00 Build 0)  -->

<svg
   xmlns:dc="http://purl.org/dc/elements/1.1/"
   xmlns:cc="http://creativecommons.org/ns#"
   xmlns:rdf="http://www.w3.org/1999/02/22-rdf-syntax-ns#"
   xmlns:svg="http://www.w3.org/2000/svg"
   xmlns="http://www.w3.org/2000/svg"
   xmlns:xlink="http://www.w3.org/1999/xlink"
   xmlns:sodipodi="http://sodipodi.sourceforge.net/DTD/sodipodi-0.dtd"
   xmlns:inkscape="http://www.inkscape.org/namespaces/inkscape"
   version="1.1"
   x="0px"
   y="0px"
   width="800px"
   height="800px"
   viewBox="0 0 800 800"
   enable-background="new 0 0 800 800"
   xml:space="preserve"
   id="svg2"
   inkscape:version="0.91 r13725"
   sodipodi:docname="logo-border-inverted.svg"><metadata
     id="metadata31"><rdf:RDF><cc:Work
         rdf:about=""><dc:format>image/svg+xml</dc:format><dc:type
           rdf:resource="http://purl.org/dc/dcmitype/StillImage" /><dc:title></dc:title></cc:Work></rdf:RDF></metadata><defs
     id="defs29"><filter
       style="color-interpolation-filters:sRGB;"
       inkscape:label="Invert"
       id="filter4169"><feColorMatrix
         type="hueRotate"
         values="180"
         result="color1"
         id="feColorMatrix4171" /><feColorMatrix
         values="-1 0 0 0 1 0 -1 0 0 1 0 0 -1 0 1 -0.21 -0.72 -0.07 2 0 "
         result="color2"
         id="feColorMatrix4173" /></filter></defs><sodipodi:namedview
     pagecolor="#ffffff"
     bordercolor="#666666"
     borderopacity="1"
     objecttolerance="10"
     gridtolerance="10"
     guidetolerance="10"
     inkscape:pageopacity="0"
     inkscape:pageshadow="2"
     inkscape:window-width="1366"
     inkscape:window-height="713"
     id="namedview27"
     showgrid="false"
     inkscape:zoom="0.68251706"
     inkscape:cx="399.99"
     inkscape:cy="394.22394"
     inkscape:window-x="0"
     inkscape:window-y="27"
     inkscape:window-maximized="1"
     inkscape:current-layer="Layer_2" /><symbol
     id="Symbol_3"
     viewBox="0 -600 600 600"><polygon
       fill-rule="evenodd"
       clip-rule="evenodd"
       points="300,0 600,-300 300,-600 0,-300  "
       id="polygon5" /></symbol><symbol
     id="Symbol_4"
     viewBox="0.019 -395.25 376.082 395.253"><path
       fill-rule="evenodd"
       clip-rule="evenodd"
       fill="#FFFFFF"
       d="M370-134.6c1.367-3.367,2.5-6.75,3.4-10.15   c5.833-21.9,2.217-44.017-10.85-66.35c-7.1-12.1-16.05-22.6-26.85-31.5c-7.4-5.1-15.534-9.633-24.4-13.6   c-30.566-13.833-61.017-17.017-91.35-9.55c-3.567,0.867-7.017,1.867-10.35,3c-4.934-5.533-10.567-10.717-16.9-15.55   c-24.233-18.367-51.784-26.333-82.65-23.9l74.7-73.2l-22.55-19.85L36.55-271.1c-0.6,0.567-1.2,1.15-1.8,1.75   c-0.6,0.633-1.217,1.25-1.85,1.85c-2.033,2.133-4.033,4.3-6,6.5C6.233-237.067-2.517-209.867,0.65-179.4   C3.817-149,18-124.217,43.2-105.05C56.867-94.65,71.633-87.6,87.5-83.9c3.133,11.833,8.917,23.316,17.35,34.45   C122.883-25.483,147.6-10.1,179-3.3c26.967,5.867,52.067,3.917,75.3-5.85l-13.15-30.6c-5.9,2.833-12,4.917-18.3,6.25   c-10.633,2.233-21.867,2.4-33.7,0.5c-23.3-3.733-42.183-14.3-56.65-31.7c-3.7-4.5-6.85-9.117-9.45-13.85   c-0.466-0.8-0.883-1.6-1.25-2.4c2.534-0.1,5.067-0.283,7.6-0.55c32.367-3.367,58.883-16.983,79.55-40.85   c1.433-1.633,2.816-3.316,4.15-5.05l1.85-2.35c9.833,12.733,23.1,22.7,39.8,29.9c4.1,1.733,8.167,3.2,12.2,4.4   c5.267,1.633,10.5,2.833,15.7,3.6c4.033,0.633,8.1,0.967,12.2,1c7.066,0.1,14.117-0.566,21.15-2c2.1-0.433,4.2-0.933,6.3-1.5   c19.9-5.5,34.383-15.917,43.45-31.25C367.283-128.433,368.7-131.433,370-134.6z M329.1-141.15c-5.367,5.933-11.867,10.1-19.5,12.5   c-5.967,1.933-12.617,2.783-19.95,2.55c-3.2-0.1-6.333-0.383-9.4-0.85c-10.633-1.633-20.683-5.533-30.15-11.7   c-2.333-1.533-4.633-3.184-6.9-4.95c-5.233-4.167-9.717-8.65-13.45-13.45c5.367-14.633,7.167-30.25,5.4-46.85   c-1.2-11.8-4.066-22.75-8.6-32.85c8.667-2.233,17.35-3.283,26.05-3.15c8.233,0.167,16.483,1.367,24.75,3.6   c12.066,2.2,23.417,7.383,34.05,15.55c0.3,0.3,0.633,0.583,1,0.85c14.2,11.167,22.917,24.45,26.15,39.85   C341.783-164.617,338.633-151.65,329.1-141.15z M197.8-173.75c-8.333-2.7-16.617-4.35-24.85-4.95   c-4.367-0.367-8.733-0.433-13.1-0.2c-4.1,0.2-8.233,0.667-12.4,1.4c-2.934,0.533-5.833,1.167-8.7,1.9   c-1.067,0.333-2.133,0.65-3.2,0.95c-21.066,6.3-35.833,18.25-44.3,35.85c-1.833,3.767-3.267,7.583-4.3,11.45   c-0.133,0.467-0.233,0.95-0.3,1.45c-0.5,2.3-0.917,4.566-1.25,6.8c-0.133,1.2-0.283,2.417-0.45,3.65   c-8.267-2.933-16.1-7.216-23.5-12.85c-0.067-0.034-0.133-0.083-0.2-0.15H61.2l-0.15-0.15C42.783-142.5,32.433-160.45,30-182.45   v-0.05c-2.2-22.033,4.217-41.75,19.25-59.15c15.6-18.033,35.667-28.317,60.2-30.85c24.533-2.6,46.35,3.317,65.45,17.75   c2.5,1.933,4.867,3.95,7.1,6.05c-6.1,4.4-11.467,9.5-16.1,15.3l21.85,19.8c3.433-4.066,7.367-7.7,11.8-10.9   c3.267,7.3,5.35,15.167,6.25,23.6v0.05c1,10.233,0.167,19.934-2.5,29.1C201.433-172.45,199.6-173.117,197.8-173.75z M186.45-141.6   c-0.034,0.133-0.083,0.233-0.15,0.3c-15.6,17.8-35.583,27.933-59.95,30.4c-3.8,0.4-7.533,0.6-11.2,0.6   c0.667-7.4,3.317-14.25,7.95-20.55c5.533-7.367,12.717-12.467,21.55-15.3c2.967-0.934,6.15-1.633,9.55-2.1c1.2-0.1,2.4-0.2,3.6-0.3   c7.034-0.467,13.9,0.133,20.6,1.8c3.167,0.9,6.35,2.033,9.55,3.4c-0.434,0.567-0.9,1.117-1.4,1.65l-0.05,0.05   C186.5-141.617,186.483-141.6,186.45-141.6z"
       id="path8" /></symbol><symbol
     id="Symbol_5"
     viewBox="0 -600 600 600"><g
       id="Layer_3_1_"><path
         fill-rule="evenodd"
         clip-rule="evenodd"
         fill="#FFFFFF"
         d="M300-30L30-300l270-270l270,270L300-30z M300,0l300-300L300-600    L0-300L300,0z"
         id="path12" /><polygon
         fill-rule="evenodd"
         clip-rule="evenodd"
         points="300,-30 570,-300 300,-570 30,-300   "
         id="polygon14" /></g></symbol><symbol
     id="Symbol_6"
     viewBox="0 -800.006 800.006 800.006"><use
       xlink:href="#Symbol_3"
       width="600"
       height="600"
       y="-600"
       transform="matrix(1.3333 0 0 1.3333 0 0)"
       overflow="visible"
       id="use17" /><use
       xlink:href="#Symbol_5"
       width="600"
       height="600"
       y="-600"
       transform="matrix(1.1773 0 0 1.1773 46.7998 -46.7998)"
       overflow="visible"
       id="use19" /><use
       xlink:href="#Symbol_4"
       width="376.082"
       height="395.253"
       x="0.019"
       y="-395.25"
       transform="matrix(1.1773 0 0 1.1773 178.5996 -190.8994)"
       overflow="visible"
       id="use21" /></symbol><g
     id="Layer_1" /><g
     id="Layer_2"
     style="filter:url(#filter4169)"><use
       xlink:href="#Symbol_6"
       width="800.006"
       height="800.006"
       y="-800.006"
       transform="matrix(1 0 0 -1 0 0)"
       overflow="visible"
       id="use25" /></g></svg>