<?xml version="1.0" encoding="UTF-8" standalone="no"?>
<!-- Created with Inkscape (http://www.inkscape.org/) -->

<svg
   xmlns:dc="http://purl.org/dc/elements/1.1/"
   xmlns:cc="http://creativecommons.org/ns#"
   xmlns:rdf="http://www.w3.org/1999/02/22-rdf-syntax-ns#"
   xmlns:svg="http://www.w3.org/2000/svg"
   xmlns="http://www.w3.org/2000/svg"
   xmlns:sodipodi="http://sodipodi.sourceforge.net/DTD/sodipodi-0.dtd"
   xmlns:inkscape="http://www.inkscape.org/namespaces/inkscape"
   id="svg4202"
   version="1.1"
   inkscape:version="0.91 r13725"
   width="300"
   height="300"
   viewBox="0 0 252.1617 251.10448"
   sodipodi:docname="moon.svg">
  <metadata
     id="metadata4208">
    <rdf:RDF>
      <cc:Work
         rdf:about="">
        <dc:format>image/svg+xml</dc:format>
        <dc:type
           rdf:resource="http://purl.org/dc/dcmitype/StillImage" />
        <dc:title></dc:title>
      </cc:Work>
    </rdf:RDF>
  </metadata>
  <defs
     id="defs4206" />
  <sodipodi:namedview
     pagecolor="#ffffff"
     bordercolor="#666666"
     borderopacity="1"
     objecttolerance="10"
     gridtolerance="10"
     guidetolerance="10"
     inkscape:pageopacity="0"
     inkscape:pageshadow="2"
     inkscape:window-width="1366"
     inkscape:window-height="713"
     id="namedview4204"
     showgrid="false"
     fit-margin-top="0"
     fit-margin-left="0"
     fit-margin-right="0"
     fit-margin-bottom="0"
     inkscape:zoom="0.38415951"
     inkscape:cx="-342.96356"
     inkscape:cy="335.98404"
     inkscape:window-x="0"
     inkscape:window-y="27"
     inkscape:window-maximized="1"
     inkscape:current-layer="svg4202" />
  <g
     id="g4212"
     transform="translate(-0.16915485,-0.0232639)">
    <path
       style="fill:#f3f3f3"
       d="M 102.5,249.77559 C 61.224236,244.05352 22.438072,211.97062 6.8120262,170.625 c -8.8571618,-23.43554 -8.8571618,-66.56446 0,-90 C 19.823249,46.198055 49.436877,17.440232 83.75,5.9104587 105.48797,-1.393856 141.78087,-1.9810929 165,4.5957942 199.70641,14.426488 232.26301,45.103339 245.68797,80.625 c 8.85717,23.43554 8.85717,66.56446 0,90 -13.42496,35.52166 -45.98156,66.19851 -80.68797,76.0292 -15.52105,4.39639 -43.29663,5.78356 -62.5,3.12139 z"
       id="path4226"
       inkscape:connector-curvature="0" />
    <path
       style="fill:#e7e7e7"
       d="M 110.625,250.49466 C 56.571385,242.49186 14.398956,204.48479 2.783495,153.30464 0.01261329,141.09555 0.01261329,110.15445 2.783495,97.945361 13.35395,51.369724 50.936199,13.977546 98.26102,2.9507141 c 13.6975,-3.19155955 42.28047,-3.19155955 55.97795,0 47.32483,11.0268319 84.90708,48.4190099 95.47753,94.9946469 2.78585,12.274999 2.77095,43.146139 -0.0267,55.487699 -10.46735,46.17458 -47.62885,83.33636 -94.68973,94.69049 -7.95686,1.91971 -36.9574,3.46931 -44.375,2.37111 z"
       id="path4224"
       inkscape:connector-curvature="0" />
    <path
       style="fill:#d8d8d8"
       d="M 114.375,250.00589 C 83.968236,246.16379 54.351149,231.35995 34.78045,210.22125 20.748304,195.06486 9.8261801,175.13327 5.6189951,157.00503 4.4855182,152.12101 2.9262993,146.82677 2.1540641,145.24005 c -1.86112826,-3.82409 -1.86112826,-35.40601 0,-39.2301 0.7722352,-1.58672 2.3314541,-6.880961 3.464931,-11.764974 C 14.150716,57.482835 44.031352,23.994019 80.717103,10.078539 c 32.819387,-12.4489095 58.246407,-12.4489095 91.065797,0 36.68575,13.91548 66.56639,47.404296 75.0981,84.166437 1.13349,4.884013 2.6927,10.178254 3.46494,11.764974 1.86112,3.82409 1.86112,35.40601 0,39.2301 -0.77224,1.58672 -2.33145,6.88096 -3.46494,11.76497 -9.79591,42.20942 -47.82676,79.55007 -90.83795,89.18938 -3.66743,0.82191 -8.0743,1.97695 -9.79305,2.56675 -4.65435,1.59717 -23.31784,2.32599 -31.875,1.24474 z"
       id="path4222"
       inkscape:connector-curvature="0" />
    <path
       style="fill:#d4d4d4"
       d="m 110,230.93997 c -16.966489,-9.06963 -18.347255,-31.72995 -2.60886,-42.81497 4.65784,-3.28065 6.39241,-3.75 13.85886,-3.75 7.46645,0 9.20103,0.46935 13.85886,3.75 19.56403,13.77952 11.44943,43.70989 -12.28988,45.33071 -5.82345,0.3976 -8.2656,-0.0817 -12.81898,-2.51574 z m 88.4202,-21.25247 c -7.18483,-5.45594 -4.43927,-19.99863 6.27161,-33.21954 5.31604,-6.56182 13.56079,-10.92755 18.36143,-9.72267 7.06234,1.77253 8.18351,13.51263 2.38221,24.94484 -3.44142,6.78176 -10.45716,14.52013 -15.49369,17.08958 -5.60565,2.85979 -8.63654,3.09859 -11.52156,0.90779 z M 66.665569,166.51261 C 35.248995,155.28401 32.476812,112.49423 62.219691,97.888686 68.252556,94.926187 70.943687,94.375 79.375,94.375 c 8.431313,0 11.122444,0.551187 17.155309,3.513686 34.527001,16.954834 23.606231,68.185124 -15.016196,70.442314 -6.01489,0.35152 -10.217212,-0.1631 -14.848544,-1.81839 z M 47.107584,63.615591 C 41.762585,62.183951 40,60.123529 40,55.306986 40,44.434575 55.156871,32.581237 69.42566,32.294831 80.39605,32.074631 84.675194,39.787835 78.829795,49.24589 73.073069,58.560468 56.41192,66.107726 47.107584,63.615591 Z M 142.5,35.290663 C 126.36055,30.89171 116.65071,22.47672 119.78267,15.60281 122.96594,8.6162965 136.49946,5.8998688 151.41081,9.2544566 174.13311,14.366263 184.38699,27.5816 171.00166,34.503421 165.03971,37.586465 152.22206,37.9405 142.5,35.290663 Z"
       id="path4220"
       inkscape:connector-curvature="0" />
    <path
       style="fill:#cbcbcb"
       d="m 114.69885,230.76212 c -7.38857,-2.70146 -10.71251,-5.403 -13.64858,-11.0929 -5.808778,-11.25705 -1.867565,-24.88122 8.91894,-30.83138 20.38524,-11.24515 42.4381,10.80771 31.19295,31.19295 -5.09759,9.24093 -17.16055,14.13267 -26.46331,10.73133 z m 83.51544,-23.97641 c -5.92583,-5.92581 2.58877,-27.1449 14.00542,-34.90271 11.55943,-7.85483 18.61444,-0.39731 13.45589,14.22358 -5.58391,15.8265 -20.83184,27.30861 -27.46131,20.67913 z M 70.232815,165.54796 c -24.057684,-6.47427 -34.710724,-33.31032 -21.275191,-53.59427 4.999953,-7.54855 12.842631,-12.821684 22.68021,-15.24935 7.22829,-1.783759 8.62966,-1.780362 15.727917,0.03812 37.344279,9.56717 37.776529,59.18824 0.599924,68.8715 -8.59783,2.23945 -9.173974,2.23732 -17.73286,-0.066 z M 43.75,60 C 39.418851,55.668851 40.532077,51.461856 47.896887,44.328475 57.955925,34.585529 72.002359,30.752359 77.5,36.25 81.831149,40.581149 80.717922,44.788144 73.353113,51.921525 63.294075,61.664471 49.247641,65.497641 43.75,60 Z M 139.59999,32.540971 C 121.63077,26.799267 115.50981,16.54312 127.14976,11.679637 c 6.52914,-2.7280484 23.57143,-1.7212945 33.1026,1.955499 14.52431,5.602968 19.05914,14.523808 9.74764,19.175422 -5.89474,2.944751 -20.7528,2.812989 -30.40001,-0.269587 z"
       id="path4218"
       inkscape:connector-curvature="0" />
    <path
       style="fill:#c2c2c2"
       d="M 109.9021,227.15775 C 102.98509,222.49639 100,216.94717 100,208.75 c 0,-5.33662 0.7075,-8.16983 2.8125,-11.26271 5.04844,-7.4177 8.87799,-9.36229 18.4375,-9.36229 9.5595,0 13.38906,1.94459 18.4375,9.36229 3.9441,5.79508 3.92971,16.73517 -0.0298,22.61061 C 134.99639,227.01491 129.44717,230 121.25,230 c -5.34657,0 -8.18537,-0.71102 -11.3479,-2.84225 z m 88.75875,-22.32433 c -2.93175,-5.47803 1.25937,-17.88456 9.03237,-26.73752 10.12004,-11.52609 20.03224,-10.32476 18.03179,2.18537 -2.63707,16.49137 -21.9847,34.04322 -27.06416,24.55215 z M 65,162.40182 C 52.42371,156.71562 45.013587,145.15075 45.039664,131.25 45.076697,111.50744 59.312533,97.524422 79.375,97.524422 c 20.062467,0 34.2983,13.983018 34.33534,33.725578 0.0369,19.68555 -14.238818,33.6951 -34.33534,33.6951 -6.123189,0 -10.438665,-0.76351 -14.375,-2.54328 z M 45.10944,59.089974 c -2.307597,-1.868579 -2.801529,-3.15446 -2.173246,-5.657737 1.919176,-7.646608 14.112232,-16.482842 24.758061,-17.942014 7.105706,-0.973947 11.876829,2.31815 10.619551,7.327539 C 76.39463,50.464371 64.201574,59.300605 53.555745,60.759777 49.257235,61.348954 47.4605,60.993746 45.10944,59.089974 Z M 142.5,32.043525 c -12.33448,-3.568108 -20.65864,-9.505029 -19.79696,-14.119511 0.68168,-3.65054 8.24772,-6.671718 16.67196,-6.657235 13.80017,0.02373 29.2703,5.997275 33.06961,12.769326 1.78943,3.189531 1.73526,3.589574 -0.83377,6.158608 -2.31163,2.311632 -4.39249,2.805288 -13.11667,3.111755 -5.9447,0.208827 -12.76933,-0.330064 -15.99417,-1.262943 z"
       id="path4216"
       inkscape:connector-curvature="0" />
    <path
       style="fill:#bebebe"
       d="m 110.35535,226.13332 c -12.902327,-8.26387 -12.129698,-28.9475 1.31973,-35.32967 5.52996,-2.62414 13.61988,-2.62414 19.14984,0 13.53023,6.42051 14.21045,27.31279 1.15203,35.38334 -5.64471,3.48862 -16.13167,3.4626 -21.6216,-0.0536 z m 88.98516,-22.492 c -3.37199,-10.62416 11.253,-32.39132 21.76318,-32.39132 6.98717,0 3.6463,16.4276 -5.56784,27.37799 -6.10694,7.25768 -14.64424,9.90045 -16.19534,5.01333 z M 72.44825,163.18948 C 56.365416,159.97807 46,147.41799 46,131.14134 46,112.62562 60.30904,98.59375 79.190481,98.59375 c 19.377591,0 33.309519,13.51673 33.309519,32.31682 0,21.89469 -18.279176,36.62643 -40.05175,32.27891 z M 45.753176,58.41733 c -6.976242,-5.230665 7.851232,-19.794744 22.055325,-21.663536 10.424255,-1.37149 12.651857,5.093541 4.54749,13.197907 -7.783927,7.783928 -21.633832,12.191286 -26.602815,8.465629 z M 142.5,30.711284 c -11.37621,-3.165465 -18.75,-8.353815 -18.75,-13.19289 0,-2.393085 8.34329,-5.019064 15.89735,-5.003558 15.97734,0.0328 32.85265,7.720729 32.85265,14.96677 0,4.422754 -18.53939,6.418628 -30,3.229678 z"
       id="path4214"
       inkscape:connector-curvature="0" />
  </g>
</svg>
